<svg width="465" height="91" viewBox="0 0 465 91" fill="none" xmlns="http://www.w3.org/2000/svg">
<g clip-path="url(#clip0_1_6)">
<path d="M15.2035 67.2163C15.2035 64.7724 16.7188 63.1105 18.9183 63.1105C20.9223 63.1105 22.2909 64.1369 24.1483 66.923C27.5698 72.2508 32.702 74.7924 39.936 74.7924C49.1252 74.7924 54.6973 70.7355 54.6973 63.8926C54.6973 58.2715 51.1781 54.7034 43.6997 52.6994L32.4576 49.6689C21.7533 46.7851 16.3766 40.9197 16.3766 32.0727C16.3766 20.5863 25.6146 12.8635 39.3006 12.8635C46.2413 12.8635 52.4489 14.9164 56.6524 18.6311C59.9273 21.5638 61.7358 24.9853 61.7358 28.2113C61.7358 30.5575 60.2694 32.1216 58.021 32.1216C56.0659 32.1216 54.7951 31.2418 53.9641 29.2866C51.7646 23.8611 46.2902 20.4885 39.4961 20.4885C30.8446 20.4885 25.2725 24.7898 25.2725 31.4373C25.2725 36.4229 28.5962 39.991 34.8527 41.6529L45.9481 44.6833C57.9233 47.9093 63.251 53.5303 63.251 62.9639C63.251 74.9391 54.0619 82.4175 39.3984 82.4175C31.5289 82.4175 24.686 80.2668 20.5313 76.5032C17.012 73.3261 15.2035 70.149 15.2035 67.2163ZM72.929 59.4446V51.3308C72.929 38.0359 81.7271 28.749 94.3866 28.749C106.655 28.749 115.258 37.6937 115.258 50.3044C115.258 55.8765 114.28 57.4406 110.663 57.4406H81.4338V60.1289C81.4827 69.0248 86.8104 74.5969 95.6085 74.5969C99.9587 74.5969 103.331 73.2772 106.069 70.6378C108.708 68.1939 109.295 67.8028 110.712 67.8028C112.569 67.8028 113.987 69.3181 113.987 71.371C113.987 72.8862 113.058 74.7436 111.592 76.2588C108.366 79.7292 102.109 81.8798 95.2175 81.8798C81.4338 81.8798 72.929 73.3261 72.929 59.4446ZM81.4338 50.5976H106.899V50.451C106.899 41.604 102.06 35.983 94.4843 35.983C86.7127 35.983 81.4338 41.8484 81.4338 50.451V50.5976ZM136.373 76.7965C136.373 79.7292 134.858 81.4888 132.17 81.4888C129.53 81.4888 127.966 79.7292 127.966 76.7965V33.8323C127.966 30.9485 129.628 29.14 132.218 29.14C134.809 29.14 136.324 30.8996 136.324 33.7346V35.6897H136.569C139.257 31.0951 143.216 28.7978 147.908 28.7978C149.375 28.7978 150.597 29.0911 151.525 29.6777C152.601 30.3131 153.187 31.4373 153.187 32.757C153.187 34.2722 152.65 35.2987 151.525 35.9341C150.646 36.4229 149.424 36.6184 147.811 36.6184C140.283 36.6673 136.373 40.7242 136.373 49.1801V76.7965ZM159.737 59.4446V51.3308C159.737 38.0359 168.535 28.749 181.195 28.749C193.463 28.749 202.066 37.6937 202.066 50.3044C202.066 55.8765 201.088 57.4406 197.471 57.4406H168.242V60.1289C168.291 69.0248 173.618 74.5969 182.417 74.5969C186.767 74.5969 190.139 73.2772 192.877 70.6378C195.516 68.1939 196.103 67.8028 197.52 67.8028C199.377 67.8028 200.795 69.3181 200.795 71.371C200.795 72.8862 199.866 74.7436 198.4 76.2588C195.174 79.7292 188.917 81.8798 182.026 81.8798C168.242 81.8798 159.737 73.3261 159.737 59.4446ZM168.242 50.5976H193.708V50.451C193.708 41.604 188.869 35.983 181.292 35.983C173.521 35.983 168.242 41.8484 168.242 50.451V50.5976ZM256.663 76.7965C256.663 79.7292 255.05 81.4888 252.411 81.4888C249.771 81.4888 248.207 79.7292 248.207 76.7965V48.3981C248.207 40.4309 244.199 36.2274 236.965 36.2274C228.509 36.2274 223.181 42.2394 223.181 52.2595V76.7965C223.181 79.7292 221.617 81.4888 218.978 81.4888C216.338 81.4888 214.774 79.7292 214.774 76.7965V33.8323C214.774 30.8996 216.387 29.14 218.978 29.14C221.568 29.14 223.132 30.8507 223.132 33.7346V39.0134H223.572C225.723 32.5126 231.295 28.7978 239.164 28.7978C250.26 28.7978 256.663 35.0543 256.663 45.8564V76.7965ZM270.3 16.7738C270.3 13.6944 272.695 11.4949 275.628 11.4949C278.805 11.4949 281.151 13.6944 281.151 16.7738C281.151 19.8531 278.805 22.1504 275.628 22.1504C272.695 22.1504 270.3 19.8531 270.3 16.7738ZM279.88 76.7965C279.88 79.9736 278.072 81.4888 275.677 81.4888C273.282 81.4888 271.473 79.9247 271.473 76.7965V33.8323C271.473 30.6552 273.33 29.14 275.726 29.14C278.121 29.14 279.88 30.7041 279.88 33.8323V76.7965ZM328.661 72.8862C327.195 78.0673 320.743 81.8309 313.166 81.8309C301.142 81.8309 293.371 73.375 293.371 60.4711V50.2066C293.371 37.2538 301.338 28.7978 313.411 28.7978C320.596 28.7978 326.266 31.9749 328.319 37.2049H328.71V15.1608C328.71 12.1792 330.274 10.4684 332.913 10.4684C335.553 10.4684 337.117 12.1792 337.117 15.1608V76.7965C337.117 79.778 335.699 81.4888 333.109 81.4888C330.567 81.4888 329.15 79.8269 329.101 76.8942V72.8862H328.661ZM301.924 58.5648C301.924 68.5849 306.812 74.4992 315.17 74.4992C323.431 74.4992 328.71 68.6826 328.71 59.4446V50.2066C328.71 42.0439 322.893 36.1296 314.877 36.1296C306.714 36.1296 301.924 42.1417 301.924 52.064V58.5648ZM381.059 74.157C377.979 79.1426 372.749 81.8309 366.248 81.8309C356.228 81.8309 349.483 75.4767 349.483 66.0432C349.483 56.7074 356.277 50.8909 367.568 50.8909H381.156V45.9053C381.156 39.3067 377.197 35.9341 369.816 35.9341C365.466 35.9341 362.534 37.4493 359.454 40.9686C358.281 42.3372 357.157 42.826 355.642 42.826C353.687 42.826 352.367 41.5062 352.367 39.5022C352.367 36.6184 354.371 33.7834 358.477 31.4373C361.458 29.7265 365.32 28.7978 370.354 28.7978C382.72 28.7978 389.563 34.8588 389.563 45.8564V76.8453C389.563 79.778 388.048 81.4888 385.458 81.4888C382.965 81.4888 381.498 79.8269 381.401 77.0408V74.157H381.059ZM358.086 65.8477C358.086 71.1754 362.289 74.7924 368.546 74.7924C375.633 74.7924 381.156 69.9046 381.156 63.5015V57.685H368.008C361.703 57.685 358.086 60.6177 358.086 65.8477ZM437.171 72.8862C435.705 78.0673 429.253 81.8309 421.676 81.8309C409.652 81.8309 401.881 73.375 401.881 60.4711V50.2066C401.881 37.2538 409.848 28.7978 421.921 28.7978C429.106 28.7978 434.776 31.9749 436.829 37.2049H437.22V15.1608C437.22 12.1792 438.784 10.4684 441.423 10.4684C444.063 10.4684 445.627 12.1792 445.627 15.1608V76.7965C445.627 79.778 444.209 81.4888 441.619 81.4888C439.077 81.4888 437.66 79.8269 437.611 76.8942V72.8862H437.171ZM410.434 58.5648C410.434 68.5849 415.322 74.4992 423.681 74.4992C431.941 74.4992 437.22 68.6826 437.22 59.4446V50.2066C437.22 42.0439 431.403 36.1296 423.387 36.1296C415.225 36.1296 410.434 42.1417 410.434 52.064V58.5648Z" fill="#777777"/>
</g>
<defs>
<clipPath id="clip0_1_6">
<rect width="465" height="91" fill="white"/>
</clipPath>
</defs>
</svg>
